<svg width="496" height="533" viewBox="0 0 496 533" fill="none" xmlns="http://www.w3.org/2000/svg">
<path d="M158 188L157.885 187.513L158 188ZM255.045 457.5L255.513 457.676L255.518 457.664L255.522 457.652L255.045 457.5ZM227.32 531.832C227.228 532.092 227.363 532.378 227.623 532.471C227.884 532.564 228.17 532.428 228.262 532.168L227.32 531.832ZM242.045 492L241.577 491.824L241.574 491.832L242.045 492ZM158 75L158.051 74.5027L158.026 74.5H158V75ZM132.153 327.588L132.04 328.075L132.153 327.588ZM394.111 53.5624L394.182 53.0675L394.111 53.5624ZM289.206 51.8481L289.021 51.3834L289.206 51.8481ZM340.405 45.811L340.333 46.3059L340.405 45.811ZM251.883 322.733L251.604 322.319L251.883 322.733ZM173.461 337.173L173.574 336.686L173.461 337.173ZM401.826 272.385L401.752 271.89L401.826 272.385ZM419.438 267.143L419.23 266.688L419.438 267.143ZM223.359 425.177L223.55 425.639L223.359 425.177ZM162.151 430.077L162.266 429.59L162.151 430.077ZM478.942 42.603L478.845 42.1124L478.942 42.603ZM53.2041 336.417L52.9721 335.974L53.2041 336.417ZM327.235 283.644L327.16 283.149L327.235 283.644ZM286.342 299.552L286.063 299.137L286.342 299.552ZM259.2 444.5L258.724 444.348L259.2 444.5ZM93.115 436.286L93.3631 436.72L93.115 436.286ZM152.257 427.737L152.142 428.224L152.257 427.737ZM358.113 194.692L358.249 195.174L358.113 194.692ZM389.202 185.442L389.28 185.936L389.202 185.442ZM429.999 190.568L430.204 190.112L429.999 190.568ZM430.182 262.231L430.39 262.686L430.182 262.231ZM238.628 71.9371L238.813 72.4018L238.628 71.9371ZM191.391 78.4655L191.339 78.9629L191.391 78.4655ZM28.626 350.477L28.3149 350.085L28.626 350.477ZM37.9492 344.407L38.1813 344.85L37.9492 344.407ZM91.7419 151.539L91.2424 151.562L91.7419 151.539ZM397.142 184.188L397.22 184.682L397.142 184.188ZM423.789 187.767L423.994 187.312L423.789 187.767ZM480.28 2.68223L480.151 3.16521L480.28 2.68223ZM228.262 532.168L229.45 528.835L228.508 528.499L227.32 531.832L228.262 532.168ZM231.826 522.168L234.201 515.501L233.259 515.165L230.884 521.832L231.826 522.168ZM236.577 508.835L238.953 502.168L238.011 501.832L235.635 508.499L236.577 508.835ZM241.328 495.501L242.516 492.168L241.574 491.832L240.387 495.165L241.328 495.501ZM242.513 492.176L243.597 489.301L242.661 488.949L241.577 491.824L242.513 492.176ZM245.763 483.551L247.93 477.801L246.994 477.449L244.827 483.199L245.763 483.551ZM250.097 472.051L252.263 466.301L251.327 465.949L249.161 471.699L250.097 472.051ZM254.43 460.551L255.513 457.676L254.577 457.324L253.494 460.199L254.43 460.551ZM255.522 457.652L256.56 454.402L255.608 454.098L254.569 457.348L255.522 457.652ZM258.637 447.903L259.676 444.653L258.724 444.348L257.685 447.598L258.637 447.903ZM259.676 444.653C260.052 443.476 260.314 442.304 260.469 441.145L259.478 441.012C259.33 442.113 259.082 443.228 258.724 444.348L259.676 444.653ZM260.092 433.993C259.514 431.628 258.499 429.422 257.142 427.467L256.32 428.037C257.61 429.895 258.573 431.989 259.121 434.23L260.092 433.993ZM252.079 422.404C250.124 421.047 247.917 420.032 245.553 419.454L245.316 420.425C247.557 420.974 249.651 421.936 251.509 423.226L252.079 422.404ZM238.401 419.078C237.242 419.233 236.069 419.495 234.893 419.871L235.198 420.823C236.318 420.465 237.433 420.216 238.534 420.069L238.401 419.078ZM234.854 419.885L231.933 421.092L232.315 422.017L235.236 420.809L234.854 419.885ZM226.09 423.508L223.168 424.715L223.55 425.639L226.472 424.432L226.09 423.508ZM223.168 424.715C221.971 425.21 220.766 425.681 219.553 426.127L219.899 427.066C221.123 426.615 222.341 426.139 223.55 425.639L223.168 424.715ZM212.172 428.524C209.678 429.227 207.16 429.832 204.626 430.338L204.822 431.318C207.382 430.808 209.924 430.197 212.444 429.486L212.172 428.524ZM196.962 431.558C194.393 431.865 191.812 432.071 189.227 432.177L189.267 433.176C191.879 433.069 194.486 432.861 197.081 432.551L196.962 431.558ZM181.466 432.192C178.884 432.096 176.303 431.899 173.728 431.601L173.613 432.595C176.214 432.896 178.821 433.094 181.429 433.191L181.466 432.192ZM166.06 430.41C164.792 430.162 163.527 429.888 162.266 429.59L162.036 430.564C163.309 430.865 164.587 431.14 165.868 431.391L166.06 430.41ZM162.266 429.59L159.792 429.005L159.562 429.979L162.036 430.564L162.266 429.59ZM154.845 427.836L152.372 427.251L152.142 428.224L154.615 428.809L154.845 427.836ZM152.372 427.251C151.121 426.955 149.866 426.689 148.608 426.454L148.424 427.437C149.666 427.669 150.906 427.932 152.142 428.224L152.372 427.251ZM140.989 425.393C138.429 425.159 135.864 425.046 133.304 425.053L133.307 426.053C135.836 426.046 138.369 426.158 140.898 426.389L140.989 425.393ZM125.621 425.434C123.068 425.682 120.527 426.049 118.008 426.535L118.197 427.517C120.686 427.037 123.195 426.674 125.718 426.43L125.621 425.434ZM110.532 428.344C108.074 429.062 105.647 429.897 103.258 430.847L103.627 431.776C105.987 430.838 108.385 430.014 110.812 429.304L110.532 428.344ZM96.2509 434.021C95.1111 434.603 93.9828 435.214 92.8669 435.851L93.3631 436.72C94.4654 436.09 95.58 435.487 96.7058 434.912L96.2509 434.021ZM92.8669 435.851L89.6069 437.715L90.1031 438.583L93.3631 436.72L92.8669 435.851ZM83.0869 441.442L79.827 443.305L80.3232 444.173L83.5832 442.31L83.0869 441.442ZM79.827 443.305C78.9085 443.83 77.9778 444.325 77.0362 444.79L77.4792 445.687C78.4388 445.213 79.3873 444.708 80.3232 444.173L79.827 443.305ZM71.2118 447.242C69.2156 447.944 67.1858 448.521 65.134 448.974L65.3493 449.95C67.4404 449.489 69.509 448.901 71.5434 448.186L71.2118 447.242ZM58.8917 449.959C56.7931 450.162 54.6839 450.237 52.5761 450.185L52.5515 451.185C54.6996 451.238 56.849 451.161 58.9878 450.954L58.8917 449.959ZM46.2793 449.649C44.2004 449.344 42.1345 448.914 40.0933 448.357L39.83 449.321C41.9103 449.889 44.0157 450.328 46.1344 450.638L46.2793 449.649ZM34.1084 446.327C33.1359 445.931 32.1722 445.503 31.2186 445.045L30.7857 445.947C31.7575 446.414 32.7396 446.849 33.7306 447.253L34.1084 446.327ZM31.2186 445.045C30.2136 444.563 29.2332 444.055 28.2777 443.522L27.7911 444.396C28.7643 444.938 29.7625 445.456 30.7857 445.947L31.2186 445.045ZM22.7096 439.951C20.9075 438.629 19.2171 437.211 17.6397 435.708L16.9501 436.433C18.5583 437.964 20.2814 439.41 22.118 440.758L22.7096 439.951ZM13.157 430.851C11.7598 429.125 10.4857 427.323 9.33638 425.457L8.48491 425.981C9.65648 427.883 10.9553 429.721 12.3799 431.48L13.157 430.851ZM6.23552 419.618C5.32446 417.603 4.54416 415.537 3.89629 413.433L2.9406 413.728C3.60072 415.871 4.39584 417.976 5.32433 420.03L6.23552 419.618ZM2.34761 407.004C1.96543 404.831 1.71858 402.636 1.6087 400.432L0.609936 400.482C0.721882 402.727 0.97337 404.964 1.36273 407.177L2.34761 407.004ZM1.69105 393.82C1.85568 391.625 2.15765 389.437 2.59853 387.27L1.61861 387.071C1.16929 389.279 0.861599 391.509 0.693851 393.745L1.69105 393.82ZM4.32542 380.888C5.03164 378.814 5.87362 376.773 6.85288 374.781L5.9554 374.339C4.95702 376.371 4.09867 378.451 3.37876 380.566L4.32542 380.888ZM10.1449 369.049C11.3494 367.234 12.6826 365.475 14.1461 363.786L13.3902 363.131C11.8987 364.853 10.5397 366.645 9.31172 368.496L10.1449 369.049ZM18.7821 359.068C19.5956 358.336 20.4387 357.623 21.3114 356.93L20.6892 356.147C19.8007 356.853 18.9422 357.579 18.1137 358.324L18.7821 359.068ZM21.3114 356.93L23.2178 355.414L22.5956 354.631L20.6892 356.147L21.3114 356.93ZM27.0307 352.383L28.9372 350.868L28.3149 350.085L26.4085 351.601L27.0307 352.383ZM28.9372 350.868C29.6581 350.295 30.3922 349.739 31.1389 349.201L30.5543 348.39C29.7949 348.937 29.0482 349.502 28.3149 350.085L28.9372 350.868ZM35.7661 346.189C36.5601 345.724 37.3654 345.278 38.1813 344.85L37.7172 343.965C36.8874 344.399 36.0684 344.853 35.2607 345.326L35.7661 346.189ZM38.1813 344.85L41.995 342.853L41.531 341.967L37.7172 343.965L38.1813 344.85ZM49.6224 338.857L53.4361 336.86L52.9721 335.974L49.1584 337.972L49.6224 338.857ZM53.4361 336.86C54.6189 336.24 55.8126 335.645 57.0166 335.075L56.5886 334.171C55.3725 334.747 54.1667 335.348 52.9721 335.974L53.4361 336.86ZM64.378 331.944C66.8748 330.999 69.4067 330.156 71.9672 329.415L71.6895 328.455C69.1032 329.203 66.5459 330.055 64.024 331.009L64.378 331.944ZM79.735 327.504C82.3468 326.972 84.981 326.544 87.6313 326.223L87.511 325.23C84.8341 325.555 82.1734 325.987 79.5354 326.524L79.735 327.504ZM95.6049 325.58C96.936 325.527 98.2696 325.5 99.6048 325.5V324.5C98.2561 324.5 96.9092 324.527 95.5647 324.581L95.6049 325.58ZM99.6048 325.5H102.091V324.5H99.6048V325.5ZM107.064 325.5H109.55V324.5H107.064V325.5ZM109.55 325.5C110.496 325.5 111.441 325.513 112.385 325.54L112.414 324.541C111.46 324.514 110.505 324.5 109.55 324.5V325.5ZM118.047 325.863C119.931 326.025 121.81 326.24 123.681 326.509L123.823 325.519C121.933 325.247 120.035 325.03 118.132 324.867L118.047 325.863ZM129.269 327.474C130.195 327.661 131.119 327.861 132.04 328.075L132.266 327.101C131.336 326.885 130.403 326.683 129.467 326.493L129.269 327.474ZM132.04 328.075L135.483 328.874L135.709 327.9L132.266 327.101L132.04 328.075ZM142.367 330.471L149.252 332.069L149.478 331.095L142.593 329.497L142.367 330.471ZM156.137 333.666L163.021 335.264L163.247 334.29L156.363 332.692L156.137 333.666ZM169.906 336.862L173.348 337.66L173.574 336.686L170.132 335.887L169.906 336.862ZM173.348 337.66C174.466 337.92 175.586 338.159 176.707 338.379L176.9 337.398C175.789 337.18 174.681 336.943 173.574 336.686L173.348 337.66ZM183.487 339.472C185.765 339.759 188.046 339.967 190.327 340.098L190.384 339.1C188.125 338.97 185.867 338.764 183.612 338.479L183.487 339.472ZM197.193 340.255C199.485 340.23 201.773 340.125 204.053 339.944L203.974 338.947C201.716 339.127 199.451 339.23 197.181 339.255L197.193 340.255ZM210.876 339.164C213.141 338.826 215.394 338.412 217.631 337.92L217.416 336.944C215.202 337.43 212.971 337.841 210.729 338.175L210.876 339.164ZM224.284 336.218C226.48 335.576 228.655 334.859 230.806 334.066L230.46 333.128C228.33 333.912 226.177 334.623 224.003 335.259L224.284 336.218ZM237.165 331.473C239.25 330.539 241.307 329.532 243.333 328.452L242.863 327.57C240.857 328.638 238.821 329.636 236.756 330.561L237.165 331.473ZM249.279 325.017C250.249 324.411 251.21 323.789 252.162 323.148L251.604 322.319C250.661 322.953 249.71 323.569 248.75 324.168L249.279 325.017ZM252.162 323.148L255.033 321.216L254.475 320.387L251.604 322.319L252.162 323.148ZM260.777 317.353L266.52 313.489L265.962 312.659L260.218 316.523L260.777 317.353ZM272.263 309.626L278.006 305.762L277.448 304.932L271.705 308.796L272.263 309.626ZM283.75 301.898L286.621 299.966L286.063 299.137L283.191 301.069L283.75 301.898ZM286.621 299.966C287.637 299.283 288.664 298.62 289.702 297.976L289.174 297.126C288.126 297.776 287.089 298.447 286.063 299.137L286.621 299.966ZM296.072 294.341C298.241 293.208 300.45 292.155 302.693 291.186L302.297 290.268C300.03 291.247 297.8 292.31 295.609 293.455L296.072 294.341ZM309.529 288.527C311.837 287.725 314.176 287.008 316.541 286.378L316.284 285.412C313.895 286.048 311.533 286.772 309.201 287.582L309.529 288.527ZM323.693 284.752C324.893 284.526 326.099 284.321 327.309 284.138L327.16 283.149C325.938 283.334 324.72 283.541 323.507 283.77L323.693 284.752ZM327.309 284.138L331.039 283.575L330.89 282.586L327.16 283.149L327.309 284.138ZM338.498 282.449L345.957 281.323L345.808 280.335L338.349 281.461L338.498 282.449ZM353.416 280.198L360.875 279.072L360.726 278.083L353.267 279.209L353.416 280.198ZM368.335 277.946L375.794 276.82L375.645 275.831L368.185 276.957L368.335 277.946ZM383.253 275.694L390.712 274.568L390.563 273.579L383.104 274.705L383.253 275.694ZM398.171 273.442L401.901 272.879L401.752 271.89L398.022 272.453L398.171 273.442ZM401.901 272.879C403.433 272.648 404.955 272.363 406.465 272.027L406.247 271.051C404.76 271.382 403.261 271.663 401.752 271.89L401.901 272.879ZM415.358 269.379C416.806 268.836 418.236 268.242 419.645 267.598L419.23 266.688C417.842 267.323 416.433 267.908 415.007 268.443L415.358 269.379ZM419.645 267.598L422.331 266.37L421.916 265.46L419.23 266.688L419.645 267.598ZM427.704 263.914L430.39 262.686L429.974 261.776L427.288 263.004L427.704 263.914ZM430.39 262.686C431.653 262.108 432.879 261.468 434.064 260.769L433.556 259.908C432.401 260.589 431.206 261.213 429.974 261.776L430.39 262.686ZM440.719 255.847C442.76 253.98 444.602 251.904 446.213 249.656L445.401 249.073C443.829 251.266 442.034 253.289 440.044 255.109L440.719 255.847ZM450.31 242.463C450.864 241.204 451.354 239.91 451.777 238.587L450.825 238.282C450.412 239.572 449.934 240.833 449.395 242.061L450.31 242.463ZM451.777 238.587C452.149 237.425 452.465 236.257 452.726 235.086L451.75 234.868C451.495 236.01 451.187 237.149 450.825 238.282L451.777 238.587ZM453.653 227.897C453.743 225.459 453.606 223.037 453.256 220.66L452.267 220.806C452.608 223.123 452.741 225.484 452.654 227.86L453.653 227.897ZM451.553 213.615C450.774 211.324 449.787 209.107 448.607 206.994L447.734 207.482C448.884 209.542 449.846 211.703 450.607 213.938L451.553 213.615ZM444.513 201.013C442.981 199.162 441.273 197.44 439.402 195.874L438.76 196.641C440.584 198.167 442.249 199.846 443.743 201.651L444.513 201.013ZM433.441 191.751C432.396 191.161 431.317 190.614 430.204 190.112L429.793 191.024C430.878 191.513 431.931 192.047 432.949 192.622L433.441 191.751ZM430.204 190.112L428.652 189.412L428.241 190.324L429.793 191.024L430.204 190.112ZM425.547 188.012L423.994 187.312L423.583 188.223L425.136 188.923L425.547 188.012ZM423.994 187.312C422.945 186.838 421.881 186.405 420.806 186.011L420.462 186.95C421.515 187.335 422.556 187.76 423.583 188.223L423.994 187.312ZM414.188 184.118C411.939 183.648 409.659 183.341 407.366 183.201L407.305 184.199C409.55 184.337 411.782 184.636 413.983 185.097L414.188 184.118ZM400.483 183.281C399.342 183.377 398.201 183.515 397.064 183.694L397.22 184.682C398.333 184.506 399.45 184.371 400.567 184.277L400.483 183.281ZM397.064 183.694L395.079 184.008L395.235 184.995L397.22 184.682L397.064 183.694ZM391.109 184.634L389.124 184.948L389.28 185.936L391.265 185.622L391.109 184.634ZM389.124 184.948C387.774 185.161 386.436 185.421 385.107 185.718L385.325 186.694C386.636 186.401 387.953 186.145 389.28 185.936L389.124 184.948ZM377.238 187.871C374.654 188.684 372.088 189.571 369.529 190.458L369.856 191.402C372.417 190.515 374.97 189.633 377.538 188.825L377.238 187.871ZM361.849 193.047C360.562 193.456 359.273 193.847 357.978 194.211L358.249 195.174C359.556 194.806 360.857 194.412 362.152 194L361.849 193.047ZM357.978 194.211C356.85 194.528 355.7 194.818 354.528 195.083L354.749 196.058C355.936 195.79 357.103 195.495 358.249 195.174L357.978 194.211ZM347.489 196.34C345.181 196.653 342.806 196.888 340.37 197.051L340.437 198.049C342.894 197.884 345.291 197.648 347.624 197.331L347.489 196.34ZM333.191 197.33C330.849 197.361 328.46 197.339 326.026 197.269L325.998 198.269C328.444 198.339 330.847 198.362 333.204 198.33L333.191 197.33ZM318.86 196.94C316.505 196.795 314.116 196.613 311.695 196.401L311.607 197.397C314.036 197.61 316.434 197.792 318.798 197.938L318.86 196.94ZM304.537 195.697C302.18 195.443 299.796 195.165 297.39 194.868L297.267 195.861C299.678 196.158 302.067 196.437 304.43 196.692L304.537 195.697ZM290.26 193.947C287.904 193.63 285.53 193.3 283.139 192.961L282.998 193.951C285.391 194.291 287.768 194.621 290.127 194.938L290.26 193.947ZM276.02 191.932C273.659 191.587 271.286 191.236 268.901 190.884L268.755 191.874C271.139 192.226 273.514 192.576 275.875 192.922L276.02 191.932ZM261.78 189.837C259.413 189.491 257.037 189.148 254.655 188.81L254.514 189.8C256.895 190.137 259.269 190.481 261.636 190.827L261.78 189.837ZM247.522 187.82C245.145 187.499 242.764 187.188 240.381 186.888L240.257 187.881C242.636 188.179 245.014 188.491 247.389 188.811L247.522 187.82ZM233.229 186.032C230.84 185.761 228.451 185.506 226.065 185.271L225.967 186.266C228.348 186.501 230.732 186.755 233.116 187.026L233.229 186.032ZM218.888 184.626C216.487 184.433 214.09 184.262 211.7 184.12L211.64 185.118C214.023 185.26 216.413 185.43 218.808 185.623L218.888 184.626ZM204.5 183.775C202.088 183.689 199.685 183.635 197.293 183.617L197.286 184.617C199.667 184.635 202.061 184.689 204.465 184.774L204.5 183.775ZM190.084 183.676C187.666 183.735 185.263 183.836 182.877 183.982L182.938 184.98C185.311 184.835 187.702 184.735 190.109 184.676L190.084 183.676ZM175.681 184.57C173.272 184.818 170.883 185.119 168.517 185.476L168.666 186.464C171.016 186.11 173.389 185.811 175.784 185.565L175.681 184.57ZM161.406 186.738C160.225 186.98 159.052 187.239 157.885 187.513L158.115 188.487C159.272 188.214 160.436 187.958 161.607 187.717L161.406 186.738ZM157.885 187.513C156.642 187.806 155.422 188.076 154.226 188.324L154.429 189.304C155.634 189.054 156.863 188.781 158.115 188.487L157.885 187.513ZM146.941 189.61C144.362 189.981 141.904 190.24 139.563 190.396L139.629 191.394C141.998 191.236 144.481 190.975 147.083 190.6L146.941 189.61ZM132.163 190.545C129.545 190.466 127.099 190.242 124.814 189.89L124.661 190.879C126.99 191.237 129.477 191.465 132.133 191.545L132.163 190.545ZM117.652 188.229C115.165 187.435 112.922 186.463 110.897 185.351L110.416 186.228C112.498 187.371 114.801 188.368 117.347 189.182L117.652 188.229ZM104.901 181.155C102.992 179.474 101.365 177.644 99.9809 175.731L99.1707 176.317C100.596 178.286 102.272 180.172 104.24 181.905L104.901 181.155ZM96.3128 169.378C95.2557 167.047 94.4623 164.699 93.8694 162.436L92.902 162.69C93.5073 165 94.3186 167.402 95.4021 169.791L96.3128 169.378ZM92.5297 155.183C92.3798 153.853 92.2906 152.62 92.2414 151.517L91.2424 151.562C91.2925 152.685 91.3833 153.94 91.536 155.295L92.5297 155.183ZM92.2414 151.517C92.2004 150.6 92.1747 149.681 92.1546 148.759L91.1548 148.781C91.175 149.706 91.2009 150.634 91.2424 151.562L92.2414 151.517ZM92.0214 143.21C91.984 142.282 91.9322 141.353 91.8562 140.424L90.8595 140.505C90.9342 141.418 90.9852 142.333 91.0222 143.25L92.0214 143.21ZM91.8562 140.424C91.7591 139.238 91.6971 138.057 91.6692 136.884L90.6695 136.908C90.6978 138.1 90.7608 139.3 90.8595 140.505L91.8562 140.424ZM91.9165 129.804C92.14 127.431 92.5032 125.095 92.998 122.806L92.0205 122.594C91.5175 124.922 91.1482 127.297 90.9209 129.71L91.9165 129.804ZM94.903 115.986C95.6763 113.743 96.5796 111.558 97.6042 109.44L96.704 109.005C95.6623 111.158 94.7439 113.379 93.9576 115.66L94.903 115.986ZM101.06 103.258C102.333 101.265 103.722 99.35 105.217 97.5241L104.443 96.8907C102.924 98.7468 101.512 100.693 100.217 102.719L101.06 103.258ZM110.016 92.3157C111.714 90.677 113.509 89.1367 115.392 87.7046L114.787 86.9087C112.873 88.3646 111.048 89.9304 109.322 91.5961L110.016 92.3157ZM121.272 83.7563C123.299 82.5624 125.403 81.4839 127.576 80.5301L127.174 79.6144C124.965 80.5842 122.825 81.6808 120.764 82.8947L121.272 83.7563ZM134.217 78.0752C136.458 77.3953 138.756 76.8428 141.104 76.4264L140.929 75.4418C138.543 75.8652 136.206 76.427 133.927 77.1182L134.217 78.0752ZM148.14 75.6024C149.312 75.5345 150.493 75.5 151.683 75.5V74.5C150.474 74.5 149.273 74.535 148.082 74.6041L148.14 75.6024ZM151.683 75.5H153.262V74.5H151.683V75.5ZM156.421 75.5H158V74.5H156.421V75.5ZM157.948 75.4973L162.122 75.9305L162.225 74.9359L158.051 74.5027L157.948 75.4973ZM170.47 76.7969L178.818 77.6633L178.921 76.6686L170.573 75.8022L170.47 76.7969ZM187.165 78.5297L191.339 78.9629L191.442 77.9682L187.269 77.535L187.165 78.5297ZM191.339 78.9629C192.678 79.1018 194.018 79.2137 195.358 79.2986L195.421 78.3006C194.094 78.2165 192.768 78.1058 191.442 77.9682L191.339 78.9629ZM203.418 79.4854C206.109 79.4397 208.794 79.2861 211.468 79.0253L211.371 78.0301C208.724 78.2882 206.065 78.4403 203.401 78.4855L203.418 79.4854ZM219.455 77.9215C222.1 77.4472 224.726 76.8667 227.328 76.1809L227.073 75.214C224.497 75.8929 221.897 76.4677 219.279 76.9372L219.455 77.9215ZM235.036 73.8149C236.303 73.3697 237.562 72.8986 238.813 72.4018L238.444 71.4724C237.205 71.9643 235.959 72.4307 234.704 72.8714L235.036 73.8149ZM238.813 72.4018L241.974 71.1463L241.605 70.2169L238.444 71.4724L238.813 72.4018ZM248.296 68.6351L254.618 66.124L254.249 65.1946L247.927 67.7058L248.296 68.6351ZM260.94 63.6129L267.262 61.1017L266.893 60.1724L260.571 62.6835L260.94 63.6129ZM273.585 58.5906L279.907 56.0795L279.538 55.1501L273.216 57.6612L273.585 58.5906ZM286.229 53.5684L289.39 52.3128L289.021 51.3834L285.86 52.639L286.229 53.5684ZM289.39 52.3128C290.396 51.9134 291.407 51.5308 292.423 51.1651L292.084 50.2242C291.058 50.5936 290.037 50.98 289.021 51.3834L289.39 52.3128ZM298.592 49.1691C300.672 48.5704 302.768 48.0403 304.878 47.5792L304.665 46.6023C302.533 47.068 300.416 47.6034 298.315 48.2082L298.592 49.1691ZM311.254 46.4021C313.392 46.0792 315.54 45.8259 317.694 45.6428L317.609 44.6464C315.433 44.8314 313.264 45.0871 311.105 45.4134L311.254 46.4021ZM324.169 45.3045C326.328 45.2622 328.491 45.2901 330.653 45.3887L330.698 44.3898C328.514 44.2902 326.33 44.262 324.149 44.3047L324.169 45.3045ZM337.117 45.895C338.19 46.0144 339.262 46.1513 340.333 46.3059L340.476 45.3161C339.394 45.16 338.311 45.0217 337.227 44.9012L337.117 45.895ZM340.333 46.3059L343.69 46.7903L343.833 45.8006L340.476 45.3161L340.333 46.3059ZM350.403 47.7593L357.116 48.7282L357.259 47.7384L350.546 46.7695L350.403 47.7593ZM363.83 49.6971L370.543 50.666L370.686 49.6763L363.973 48.7074L363.83 49.6971ZM377.256 51.635L383.969 52.6039L384.112 51.6141L377.399 50.6452L377.256 51.635ZM390.683 53.5728L394.039 54.0573L394.182 53.0675L390.826 52.5831L390.683 53.5728ZM394.039 54.0573C395.441 54.2596 396.847 54.4322 398.254 54.5749L398.355 53.58C396.962 53.4387 395.57 53.2679 394.182 53.0675L394.039 54.0573ZM406.729 55.0742C409.56 55.1211 412.392 55.0484 415.217 54.8562L415.149 53.8585C412.352 54.0488 409.549 54.1208 406.746 54.0743L406.729 55.0742ZM423.656 53.9226C425.054 53.7079 426.448 53.4634 427.838 53.1894L427.645 52.2083C426.269 52.4796 424.888 52.7216 423.504 52.9342L423.656 53.9226ZM427.838 53.1894L431.038 52.5584L430.845 51.5773L427.645 52.2083L427.838 53.1894ZM437.438 51.2964L443.838 50.0344L443.645 49.0533L437.245 50.3153L437.438 51.2964ZM450.238 48.7725L456.638 47.5105L456.445 46.5294L450.045 47.7913L450.238 48.7725ZM463.038 46.2485L469.438 44.9865L469.245 44.0054L462.845 45.2674L463.038 46.2485ZM475.839 43.7245L479.039 43.0936L478.845 42.1124L475.645 42.7434L475.839 43.7245ZM479.039 43.0936C479.557 42.9913 480.071 42.8695 480.58 42.7287L480.313 41.765C479.829 41.8991 479.339 42.015 478.845 42.1124L479.039 43.0936ZM483.558 41.6565C484.04 41.4408 484.514 41.2069 484.979 40.9551L484.502 40.0758C484.06 40.3156 483.608 40.5384 483.15 40.7438L483.558 41.6565ZM484.979 40.9551C486.246 40.2685 487.402 39.4901 488.447 38.6353L487.814 37.8613C486.818 38.6755 485.715 39.4188 484.502 40.0758L484.979 40.9551ZM493.679 32.1895C494.974 29.6759 495.714 26.9504 495.922 24.1962L494.925 24.1209C494.727 26.7472 494.021 29.3419 492.79 31.7315L493.679 32.1895ZM494.95 15.9536C494.107 13.3234 492.754 10.8447 490.91 8.70124L490.152 9.35344C491.905 11.3912 493.194 13.7507 493.998 16.2588L494.95 15.9536ZM484.322 3.64887C483.107 3.06053 481.802 2.57225 480.41 2.19926L480.151 3.16521C481.483 3.5221 482.729 3.98848 483.886 4.54893L484.322 3.64887ZM480.41 2.19926L478.839 1.7787L478.581 2.74465L480.151 3.16521L480.41 2.19926ZM475.699 0.937584L474.129 0.517026L473.87 1.48297L475.441 1.90353L475.699 0.937584Z" fill="#2A3B52"/>
</svg>
